# xmcd
#
# Track frame offsets:
# 150
# 13409
# 28891
# 42661
# 57415
# 74289
# 85428
# 102208
# 115882
# 128391
#
# Disc length: 1902 seconds
#
# Revision: 0
# Processed by: cddbd v1.5.2PL0 Copyright (c) Steve Scherf et al.
# Submitted via: Axialis_AX_CDPlayer 2.6
#
DISCID=8c076c0a
DTITLE=Chris Conz - Boogie Woogie Breakup
DYEAR=1900
DGENRE=
TTITLE0=Boogie Woogie Breakup
TTITLE1=Holler Stomp
TTITLE2=Suitcase Blues
TTITLE3=Brisk Cat Boogie
TTITLE4=Honky Tonk Train Blues
TTITLE5=Walk Through the Boogie
TTITLE6=Honeymoon Blues
TTITLE7=Swiss Mountain Boogie
TTITLE8=Boogie on Thursday
TTITLE9=Grooven the Shuffle 
EXTD=
EXTT0=
EXTT1=
EXTT2=
EXTT3=
EXTT4=
EXTT5=
EXTT6=
EXTT7=
EXTT8=
EXTT9=
PLAYORDER=
